<?xml version="1.0" encoding="UTF-8" standalone="no"?>
<!DOCTYPE svg PUBLIC "-//W3C//DTD SVG 1.1//EN" "http://www.w3.org/Graphics/SVG/1.1/DTD/svg11.dtd">
<svg width="100%" height="100%" viewBox="0 0 1001 1000" version="1.1" xmlns="http://www.w3.org/2000/svg" xmlns:xlink="http://www.w3.org/1999/xlink" xml:space="preserve" xmlns:serif="http://www.serif.com/" style="fill-rule:evenodd;clip-rule:evenodd;stroke-linejoin:round;stroke-miterlimit:2;">
    <g transform="matrix(1,0,0,1,-999,-500)">
        <path d="M1500,769.603L1765.21,504.39C1768.02,501.577 1771.84,499.996 1775.82,499.996C1794.76,499.996 1853.1,499.996 1896.3,499.996C1902.98,499.996 1908.86,504.411 1910.71,510.826C1912.57,517.241 1909.96,524.111 1904.31,527.678C1843.48,569.565 1719.47,661.503 1550.24,819.842L1680.15,949.761C1838.49,780.535 1930.43,656.517 1972.32,595.686C1975.88,590.04 1982.75,587.432 1989.17,589.289C1995.58,591.145 2000,597.019 2000,603.697C2000,646.9 2000,705.245 2000,724.184C2000,728.162 1998.42,731.977 1995.6,734.79L1730.39,1000L1995.61,1265.21C1998.42,1268.03 2000,1271.84 2000,1275.82C2000,1294.76 2000,1353.1 1999.98,1396.31C1999.98,1402.97 1995.57,1408.84 1989.16,1410.69C1982.76,1412.55 1975.9,1409.94 1972.34,1404.31C1930.43,1343.48 1838.48,1219.44 1680.15,1050.24L1550.24,1180.16C1719.47,1338.5 1843.48,1430.43 1904.3,1472.34C1909.93,1475.9 1912.54,1482.76 1910.68,1489.16C1908.83,1495.57 1902.97,1499.98 1896.3,1499.98C1853.1,1500 1794.75,1500 1775.81,1500C1771.83,1500 1768.02,1498.42 1765.21,1495.61L1500,1230.4L1234.78,1495.61C1231.97,1498.42 1228.15,1500 1224.18,1500C1205.24,1500 1146.89,1500 1103.69,1499.98C1097.02,1499.98 1091.16,1495.57 1089.3,1489.17C1087.45,1482.76 1090.05,1475.9 1095.69,1472.34C1156.52,1430.43 1280.55,1338.48 1449.76,1180.16L1319.84,1050.24C1161.5,1219.47 1069.56,1343.48 1027.66,1404.3C1024.1,1409.94 1017.24,1412.54 1010.83,1410.69C1004.43,1408.84 1000.02,1402.97 1000.02,1396.3C999.996,1353.1 999.996,1294.76 999.996,1275.82C999.996,1271.84 1001.58,1268.02 1004.39,1265.21L1269.6,1000L1004.39,734.787C1001.57,731.974 999.992,728.158 999.993,724.18C999.993,705.241 999.993,646.896 999.993,603.694C999.993,597.015 1004.41,591.142 1010.82,589.285C1017.24,587.428 1024.11,590.036 1027.67,595.682C1069.56,656.513 1161.5,780.531 1319.84,949.761L1449.76,819.842C1280.53,661.507 1156.51,569.569 1095.68,527.681C1090.04,524.114 1087.43,517.245 1089.29,510.83C1091.14,504.415 1097.02,500 1103.69,500C1146.9,500 1205.24,500 1224.18,500C1228.16,500 1231.97,501.58 1234.79,504.393L1500,769.603ZM1500,867.553C1478.33,888.425 1456.05,910.28 1433.16,933.171C1410.27,956.062 1388.42,978.341 1367.55,1000C1388.42,1021.66 1410.28,1043.94 1433.17,1066.83C1456.06,1089.72 1478.34,1111.58 1500,1132.45C1521.65,1111.58 1543.93,1089.73 1566.82,1066.84C1589.71,1043.95 1611.57,1021.67 1632.44,1000C1611.58,978.345 1589.72,956.065 1566.83,933.175C1543.94,910.284 1521.66,888.429 1500,867.553Z"/>
    </g>
</svg>
